<mxfile host="app.diagrams.net" modified="2023-12-24T14:21:06.607Z" agent="Mozilla/5.0 (Macintosh; Intel Mac OS X 10_15_7) AppleWebKit/537.36 (KHTML, like Gecko) Chrome/120.0.0.0 Safari/537.36" etag="757IRm60-pANEnvdEoPK" version="22.1.11" type="github">
  <diagram name="第 1 页" id="10Fb-omrVzw-s_63K5UN">
    <mxGraphModel dx="702" dy="581" grid="0" gridSize="10" guides="1" tooltips="1" connect="1" arrows="1" fold="1" page="1" pageScale="1" pageWidth="827" pageHeight="1169" background="#000000" math="0" shadow="0">
      <root>
        <mxCell id="0" />
        <mxCell id="1" parent="0" />
      </root>
    </mxGraphModel>
  </diagram>
</mxfile>
